{
	"patcher" : 	{
		"fileversion" : 1,
		"appversion" : 		{
			"major" : 7,
			"minor" : 2,
			"revision" : 5,
			"architecture" : "x86",
			"modernui" : 1
		}
,
		"rect" : [ 34.0, 79.0, 974.0, 683.0 ],
		"bglocked" : 0,
		"openinpresentation" : 0,
		"default_fontsize" : 12.0,
		"default_fontface" : 0,
		"default_fontname" : "Arial",
		"gridonopen" : 1,
		"gridsize" : [ 15.0, 15.0 ],
		"gridsnaponopen" : 1,
		"objectsnaponopen" : 1,
		"statusbarvisible" : 2,
		"toolbarvisible" : 1,
		"lefttoolbarpinned" : 0,
		"toptoolbarpinned" : 0,
		"righttoolbarpinned" : 0,
		"bottomtoolbarpinned" : 0,
		"toolbars_unpinned_last_save" : 0,
		"tallnewobj" : 0,
		"boxanimatetime" : 200,
		"enablehscroll" : 1,
		"enablevscroll" : 1,
		"devicewidth" : 0.0,
		"description" : "",
		"digest" : "",
		"tags" : "",
		"style" : "",
		"subpatcher_template" : "",
		"boxes" : [ 			{
				"box" : 				{
					"id" : "obj-15",
					"maxclass" : "message",
					"numinlets" : 2,
					"numoutlets" : 1,
					"outlettype" : [ "" ],
					"patching_rect" : [ 363.0, 161.0, 73.0, 22.0 ],
					"style" : "",
					"text" : "trial-type $1"
				}

			}
, 			{
				"box" : 				{
					"id" : "obj-7",
					"maxclass" : "newobj",
					"numinlets" : 1,
					"numoutlets" : 0,
					"patching_rect" : [ 363.0, 188.0, 36.0, 22.0 ],
					"style" : "",
					"text" : "s log"
				}

			}
, 			{
				"box" : 				{
					"id" : "obj-2",
					"maxclass" : "newobj",
					"numinlets" : 1,
					"numoutlets" : 3,
					"outlettype" : [ "int", "int", "int" ],
					"patching_rect" : [ 200.0, 244.333374, 40.0, 22.0 ],
					"style" : "",
					"text" : "t i i i"
				}

			}
, 			{
				"box" : 				{
					"id" : "obj-1",
					"linecount" : 2,
					"maxclass" : "comment",
					"numinlets" : 1,
					"numoutlets" : 0,
					"patching_rect" : [ 363.0, 593.333374, 68.0, 33.0 ],
					"style" : "",
					"text" : "Redo now or later?"
				}

			}
, 			{
				"box" : 				{
					"id" : "obj-48",
					"maxclass" : "comment",
					"numinlets" : 1,
					"numoutlets" : 0,
					"patching_rect" : [ 391.0, 539.833374, 61.0, 20.0 ],
					"style" : "",
					"text" : "success?"
				}

			}
, 			{
				"box" : 				{
					"id" : "obj-47",
					"maxclass" : "newobj",
					"numinlets" : 1,
					"numoutlets" : 2,
					"outlettype" : [ "bang", "int" ],
					"patching_rect" : [ 456.083313, 594.333374, 30.0, 22.0 ],
					"style" : "",
					"text" : "t b i"
				}

			}
, 			{
				"box" : 				{
					"id" : "obj-46",
					"maxclass" : "comment",
					"numinlets" : 1,
					"numoutlets" : 0,
					"patching_rect" : [ 519.583313, 630.0, 33.0, 20.0 ],
					"style" : "",
					"text" : "next"
				}

			}
, 			{
				"box" : 				{
					"id" : "obj-43",
					"maxclass" : "button",
					"numinlets" : 1,
					"numoutlets" : 1,
					"outlettype" : [ "bang" ],
					"patching_rect" : [ 493.0, 630.0, 24.0, 24.0 ],
					"style" : ""
				}

			}
, 			{
				"box" : 				{
					"bubble" : 1,
					"id" : "obj-41",
					"maxclass" : "comment",
					"numinlets" : 1,
					"numoutlets" : 0,
					"patching_rect" : [ 679.083313, 379.5, 114.0, 24.0 ],
					"style" : "",
					"text" : "Trial parameters"
				}

			}
, 			{
				"box" : 				{
					"id" : "obj-39",
					"maxclass" : "newobj",
					"numinlets" : 1,
					"numoutlets" : 1,
					"outlettype" : [ "" ],
					"patching_rect" : [ 456.083313, 514.333374, 122.0, 22.0 ],
					"style" : "",
					"text" : "pause-between-trials"
				}

			}
, 			{
				"box" : 				{
					"id" : "obj-35",
					"linecount" : 2,
					"maxclass" : "comment",
					"numinlets" : 1,
					"numoutlets" : 0,
					"patching_rect" : [ 173.833344, 329.833374, 156.0, 33.0 ],
					"style" : "",
					"text" : "In case we fail this trial and will have to make it up later"
				}

			}
, 			{
				"box" : 				{
					"bubble" : 1,
					"id" : "obj-28",
					"linecount" : 3,
					"maxclass" : "comment",
					"numinlets" : 1,
					"numoutlets" : 0,
					"patching_rect" : [ 708.75, 482.833374, 212.0, 51.0 ],
					"style" : "",
					"text" : "Trial number (in actual sequence that the subjects experience them, including practice and do-overs)"
				}

			}
, 			{
				"box" : 				{
					"id" : "obj-25",
					"maxclass" : "newobj",
					"numinlets" : 1,
					"numoutlets" : 2,
					"outlettype" : [ "", "bang" ],
					"patching_rect" : [ 456.083313, 408.0, 30.0, 22.0 ],
					"style" : "",
					"text" : "t l b"
				}

			}
, 			{
				"box" : 				{
					"id" : "obj-20",
					"maxclass" : "button",
					"numinlets" : 1,
					"numoutlets" : 1,
					"outlettype" : [ "bang" ],
					"patching_rect" : [ 644.75, 425.833374, 24.0, 24.0 ],
					"style" : ""
				}

			}
, 			{
				"box" : 				{
					"fontsize" : 20.0,
					"id" : "obj-22",
					"maxclass" : "number",
					"numinlets" : 1,
					"numoutlets" : 2,
					"outlettype" : [ "", "bang" ],
					"parameter_enable" : 0,
					"patching_rect" : [ 644.75, 491.333374, 62.0, 31.0 ],
					"style" : ""
				}

			}
, 			{
				"box" : 				{
					"id" : "obj-23",
					"maxclass" : "message",
					"numinlets" : 2,
					"numoutlets" : 1,
					"outlettype" : [ "" ],
					"patching_rect" : [ 670.75, 425.833374, 29.5, 22.0 ],
					"style" : "",
					"text" : "1"
				}

			}
, 			{
				"box" : 				{
					"id" : "obj-24",
					"maxclass" : "newobj",
					"numinlets" : 5,
					"numoutlets" : 4,
					"outlettype" : [ "int", "", "", "int" ],
					"patching_rect" : [ 644.75, 460.333374, 71.0, 22.0 ],
					"style" : "",
					"text" : "counter"
				}

			}
, 			{
				"box" : 				{
					"id" : "obj-21",
					"maxclass" : "button",
					"numinlets" : 1,
					"numoutlets" : 1,
					"outlettype" : [ "bang" ],
					"patching_rect" : [ 431.083313, 593.333374, 24.0, 24.0 ],
					"style" : ""
				}

			}
, 			{
				"box" : 				{
					"id" : "obj-19",
					"maxclass" : "newobj",
					"numinlets" : 1,
					"numoutlets" : 3,
					"outlettype" : [ "bang", "", "" ],
					"patching_rect" : [ 427.5, 282.333374, 69.5, 22.0 ],
					"style" : "",
					"text" : "t b l l"
				}

			}
, 			{
				"box" : 				{
					"id" : "obj-17",
					"maxclass" : "message",
					"numinlets" : 2,
					"numoutlets" : 1,
					"outlettype" : [ "" ],
					"patching_rect" : [ 456.083313, 379.5, 221.0, 22.0 ],
					"style" : "",
					"text" : "2 1 piece1.coll.txt 1 3 2 4 4 2 -2 219"
				}

			}
, 			{
				"box" : 				{
					"id" : "obj-12",
					"maxclass" : "comment",
					"numinlets" : 1,
					"numoutlets" : 0,
					"patching_rect" : [ 372.0, 567.0, 59.0, 20.0 ],
					"style" : "",
					"text" : "practice?"
				}

			}
, 			{
				"box" : 				{
					"id" : "obj-9",
					"maxclass" : "newobj",
					"numinlets" : 3,
					"numoutlets" : 3,
					"outlettype" : [ "bang", "bang", "" ],
					"patching_rect" : [ 456.083313, 539.833374, 46.0, 22.0 ],
					"style" : "",
					"text" : "sel 0 1"
				}

			}
, 			{
				"box" : 				{
					"id" : "obj-6",
					"maxclass" : "newobj",
					"numinlets" : 2,
					"numoutlets" : 2,
					"outlettype" : [ "", "" ],
					"patching_rect" : [ 431.083313, 567.0, 44.0, 22.0 ],
					"style" : "",
					"text" : "gate 2"
				}

			}
, 			{
				"box" : 				{
					"id" : "obj-3",
					"maxclass" : "newobj",
					"numinlets" : 1,
					"numoutlets" : 1,
					"outlettype" : [ "int" ],
					"patching_rect" : [ 438.0, 320.0, 59.0, 22.0 ],
					"style" : "",
					"text" : "unpack 1"
				}

			}
, 			{
				"box" : 				{
					"id" : "obj-18",
					"linecount" : 3,
					"maxclass" : "comment",
					"numinlets" : 1,
					"numoutlets" : 0,
					"patching_rect" : [ 445.5, 199.333374, 196.0, 47.0 ],
					"style" : "",
					"text" : "Assumption: this coll already contains the series of trials for this block, with 1-origin index numbers."
				}

			}
, 			{
				"box" : 				{
					"id" : "obj-224",
					"maxclass" : "newobj",
					"numinlets" : 1,
					"numoutlets" : 4,
					"outlettype" : [ "", "", "", "" ],
					"patching_rect" : [ 427.5, 254.333374, 113.0, 22.0 ],
					"saved_object_attributes" : 					{
						"embed" : 0
					}
,
					"style" : "",
					"text" : "coll trials-sequence"
				}

			}
, 			{
				"box" : 				{
					"fontsize" : 24.0,
					"id" : "obj-5",
					"maxclass" : "newobj",
					"numinlets" : 1,
					"numoutlets" : 1,
					"outlettype" : [ "int" ],
					"patching_rect" : [ 456.083313, 441.333374, 141.0, 35.0 ],
					"style" : "",
					"text" : "piece-follow"
				}

			}
, 			{
				"box" : 				{
					"id" : "obj-13",
					"maxclass" : "comment",
					"numinlets" : 1,
					"numoutlets" : 0,
					"patching_rect" : [ 165.833344, 10.0, 83.0, 20.0 ],
					"style" : "",
					"text" : "block number"
				}

			}
, 			{
				"box" : 				{
					"id" : "obj-79",
					"maxclass" : "comment",
					"numinlets" : 1,
					"numoutlets" : 0,
					"patching_rect" : [ 53.583328, 154.666687, 33.0, 20.0 ],
					"style" : "",
					"text" : "next"
				}

			}
, 			{
				"box" : 				{
					"id" : "obj-64",
					"maxclass" : "newobj",
					"numinlets" : 0,
					"numoutlets" : 1,
					"outlettype" : [ "" ],
					"patching_rect" : [ 31.5, 30.0, 92.0, 22.0 ],
					"style" : "",
					"text" : "r block-proceed"
				}

			}
, 			{
				"box" : 				{
					"id" : "obj-63",
					"maxclass" : "newobj",
					"numinlets" : 2,
					"numoutlets" : 2,
					"outlettype" : [ "bang", "bang" ],
					"patching_rect" : [ 90.0, 68.5, 57.0, 22.0 ],
					"style" : "",
					"text" : "onebang"
				}

			}
, 			{
				"box" : 				{
					"comment" : "",
					"id" : "obj-55",
					"maxclass" : "outlet",
					"numinlets" : 1,
					"numoutlets" : 0,
					"patching_rect" : [ 90.0, 307.833374, 30.0, 30.0 ],
					"style" : ""
				}

			}
, 			{
				"box" : 				{
					"id" : "obj-54",
					"maxclass" : "newobj",
					"numinlets" : 1,
					"numoutlets" : 3,
					"outlettype" : [ "bang", "bang", "bang" ],
					"patching_rect" : [ 128.25, 40.0, 44.0, 22.0 ],
					"style" : "",
					"text" : "t b b b"
				}

			}
, 			{
				"box" : 				{
					"comment" : "",
					"id" : "obj-53",
					"maxclass" : "inlet",
					"numinlets" : 0,
					"numoutlets" : 1,
					"outlettype" : [ "" ],
					"patching_rect" : [ 128.25, 5.0, 30.0, 30.0 ],
					"style" : ""
				}

			}
, 			{
				"box" : 				{
					"id" : "obj-110",
					"maxclass" : "newobj",
					"numinlets" : 1,
					"numoutlets" : 0,
					"patcher" : 					{
						"fileversion" : 1,
						"appversion" : 						{
							"major" : 7,
							"minor" : 2,
							"revision" : 5,
							"architecture" : "x86",
							"modernui" : 1
						}
,
						"rect" : [ 912.0, 78.0, 508.0, 315.0 ],
						"bglocked" : 0,
						"openinpresentation" : 0,
						"default_fontsize" : 12.0,
						"default_fontface" : 0,
						"default_fontname" : "Arial",
						"gridonopen" : 1,
						"gridsize" : [ 15.0, 15.0 ],
						"gridsnaponopen" : 1,
						"objectsnaponopen" : 1,
						"statusbarvisible" : 2,
						"toolbarvisible" : 1,
						"lefttoolbarpinned" : 0,
						"toptoolbarpinned" : 0,
						"righttoolbarpinned" : 0,
						"bottomtoolbarpinned" : 0,
						"toolbars_unpinned_last_save" : 0,
						"tallnewobj" : 0,
						"boxanimatetime" : 200,
						"enablehscroll" : 1,
						"enablevscroll" : 1,
						"devicewidth" : 0.0,
						"description" : "",
						"digest" : "",
						"tags" : "",
						"style" : "",
						"subpatcher_template" : "",
						"boxes" : [ 							{
								"box" : 								{
									"id" : "obj-3",
									"maxclass" : "newobj",
									"numinlets" : 1,
									"numoutlets" : 0,
									"patching_rect" : [ 219.0, 210.5, 36.0, 22.0 ],
									"style" : "",
									"text" : "s log"
								}

							}
, 							{
								"box" : 								{
									"id" : "obj-2",
									"maxclass" : "newobj",
									"numinlets" : 1,
									"numoutlets" : 1,
									"outlettype" : [ "" ],
									"patching_rect" : [ 345.0, 144.5, 132.0, 22.0 ],
									"style" : "",
									"text" : "value block-number 99"
								}

							}
, 							{
								"box" : 								{
									"id" : "obj-1",
									"maxclass" : "newobj",
									"numinlets" : 2,
									"numoutlets" : 1,
									"outlettype" : [ "" ],
									"patching_rect" : [ 219.0, 184.5, 195.0, 22.0 ],
									"style" : "",
									"text" : "sprintf starting trial %d of block %d"
								}

							}
, 							{
								"box" : 								{
									"id" : "obj-96",
									"maxclass" : "newobj",
									"numinlets" : 1,
									"numoutlets" : 1,
									"outlettype" : [ "" ],
									"patching_rect" : [ 50.0, 136.5, 132.0, 22.0 ],
									"style" : "",
									"text" : "value block-number 99"
								}

							}
, 							{
								"box" : 								{
									"id" : "obj-93",
									"maxclass" : "newobj",
									"numinlets" : 1,
									"numoutlets" : 4,
									"outlettype" : [ "bang", "int", "int", "bang" ],
									"patching_rect" : [ 50.0, 100.0, 386.0, 22.0 ],
									"style" : "",
									"text" : "t b i i b"
								}

							}
, 							{
								"box" : 								{
									"id" : "obj-88",
									"maxclass" : "newobj",
									"numinlets" : 2,
									"numoutlets" : 1,
									"outlettype" : [ "" ],
									"patching_rect" : [ 50.0, 184.5, 115.0, 22.0 ],
									"style" : "",
									"text" : "sprintf %02d_%02d"
								}

							}
, 							{
								"box" : 								{
									"id" : "obj-87",
									"maxclass" : "newobj",
									"numinlets" : 1,
									"numoutlets" : 1,
									"outlettype" : [ "" ],
									"patching_rect" : [ 50.0, 210.5, 131.0, 22.0 ],
									"style" : "",
									"text" : "value block+trial-name"
								}

							}
, 							{
								"box" : 								{
									"comment" : "",
									"id" : "obj-109",
									"maxclass" : "inlet",
									"numinlets" : 0,
									"numoutlets" : 1,
									"outlettype" : [ "" ],
									"patching_rect" : [ 50.0, 40.0, 30.0, 30.0 ],
									"style" : ""
								}

							}
 ],
						"lines" : [ 							{
								"patchline" : 								{
									"destination" : [ "obj-3", 0 ],
									"disabled" : 0,
									"hidden" : 0,
									"source" : [ "obj-1", 0 ]
								}

							}
, 							{
								"patchline" : 								{
									"destination" : [ "obj-93", 0 ],
									"disabled" : 0,
									"hidden" : 0,
									"source" : [ "obj-109", 0 ]
								}

							}
, 							{
								"patchline" : 								{
									"destination" : [ "obj-1", 1 ],
									"disabled" : 0,
									"hidden" : 0,
									"source" : [ "obj-2", 0 ]
								}

							}
, 							{
								"patchline" : 								{
									"destination" : [ "obj-87", 0 ],
									"disabled" : 0,
									"hidden" : 0,
									"source" : [ "obj-88", 0 ]
								}

							}
, 							{
								"patchline" : 								{
									"destination" : [ "obj-1", 0 ],
									"disabled" : 0,
									"hidden" : 0,
									"source" : [ "obj-93", 2 ]
								}

							}
, 							{
								"patchline" : 								{
									"destination" : [ "obj-2", 0 ],
									"disabled" : 0,
									"hidden" : 0,
									"source" : [ "obj-93", 3 ]
								}

							}
, 							{
								"patchline" : 								{
									"destination" : [ "obj-88", 1 ],
									"disabled" : 0,
									"hidden" : 0,
									"midpoints" : [ 181.833328, 132.0, 192.0, 132.0, 192.0, 171.0, 155.5, 171.0 ],
									"source" : [ "obj-93", 1 ]
								}

							}
, 							{
								"patchline" : 								{
									"destination" : [ "obj-96", 0 ],
									"disabled" : 0,
									"hidden" : 0,
									"source" : [ "obj-93", 0 ]
								}

							}
, 							{
								"patchline" : 								{
									"destination" : [ "obj-88", 0 ],
									"disabled" : 0,
									"hidden" : 0,
									"source" : [ "obj-96", 0 ]
								}

							}
 ]
					}
,
					"patching_rect" : [ 644.75, 539.5, 109.0, 22.0 ],
					"saved_object_attributes" : 					{
						"description" : "",
						"digest" : "",
						"globalpatchername" : "",
						"style" : "",
						"tags" : ""
					}
,
					"style" : "",
					"text" : "p block+trial-name"
				}

			}
, 			{
				"box" : 				{
					"id" : "obj-107",
					"maxclass" : "comment",
					"numinlets" : 1,
					"numoutlets" : 0,
					"patching_rect" : [ 255.666687, 154.666687, 61.0, 20.0 ],
					"style" : "",
					"text" : "redo later"
				}

			}
, 			{
				"box" : 				{
					"id" : "obj-105",
					"maxclass" : "number",
					"numinlets" : 1,
					"numoutlets" : 2,
					"outlettype" : [ "", "bang" ],
					"parameter_enable" : 0,
					"patching_rect" : [ 200.0, 154.666687, 50.0, 22.0 ],
					"style" : ""
				}

			}
, 			{
				"box" : 				{
					"id" : "obj-103",
					"maxclass" : "button",
					"numinlets" : 1,
					"numoutlets" : 1,
					"outlettype" : [ "bang" ],
					"patching_rect" : [ 165.833344, 276.333374, 24.0, 24.0 ],
					"style" : ""
				}

			}
, 			{
				"box" : 				{
					"id" : "obj-102",
					"maxclass" : "newobj",
					"numinlets" : 2,
					"numoutlets" : 1,
					"outlettype" : [ "int" ],
					"patching_rect" : [ 165.833344, 305.333374, 39.5, 22.0 ],
					"style" : "",
					"text" : "int"
				}

			}
, 			{
				"box" : 				{
					"fontsize" : 20.0,
					"id" : "obj-83",
					"maxclass" : "number",
					"numinlets" : 1,
					"numoutlets" : 2,
					"outlettype" : [ "", "bang" ],
					"parameter_enable" : 0,
					"patching_rect" : [ 200.0, 209.666687, 50.0, 31.0 ],
					"style" : ""
				}

			}
, 			{
				"box" : 				{
					"id" : "obj-84",
					"linecount" : 2,
					"maxclass" : "comment",
					"numinlets" : 1,
					"numoutlets" : 0,
					"patching_rect" : [ 252.0, 209.666687, 55.0, 33.0 ],
					"style" : "",
					"text" : "current trial type"
				}

			}
, 			{
				"box" : 				{
					"id" : "obj-82",
					"maxclass" : "button",
					"numinlets" : 1,
					"numoutlets" : 1,
					"outlettype" : [ "bang" ],
					"patching_rect" : [ 90.0, 154.666687, 24.0, 24.0 ],
					"style" : ""
				}

			}
, 			{
				"box" : 				{
					"id" : "obj-80",
					"maxclass" : "comment",
					"numinlets" : 1,
					"numoutlets" : 0,
					"patching_rect" : [ 114.0, 154.666687, 26.0, 20.0 ],
					"style" : "",
					"text" : "init"
				}

			}
, 			{
				"box" : 				{
					"id" : "obj-77",
					"maxclass" : "newobj",
					"numinlets" : 3,
					"numoutlets" : 2,
					"outlettype" : [ "bang", "" ],
					"patcher" : 					{
						"fileversion" : 1,
						"appversion" : 						{
							"major" : 7,
							"minor" : 2,
							"revision" : 5,
							"architecture" : "x86",
							"modernui" : 1
						}
,
						"rect" : [ 745.0, 217.0, 689.0, 816.0 ],
						"bglocked" : 0,
						"openinpresentation" : 0,
						"default_fontsize" : 12.0,
						"default_fontface" : 0,
						"default_fontname" : "Arial",
						"gridonopen" : 1,
						"gridsize" : [ 15.0, 15.0 ],
						"gridsnaponopen" : 1,
						"objectsnaponopen" : 1,
						"statusbarvisible" : 2,
						"toolbarvisible" : 1,
						"lefttoolbarpinned" : 0,
						"toptoolbarpinned" : 0,
						"righttoolbarpinned" : 0,
						"bottomtoolbarpinned" : 0,
						"toolbars_unpinned_last_save" : 0,
						"tallnewobj" : 0,
						"boxanimatetime" : 200,
						"enablehscroll" : 1,
						"enablevscroll" : 1,
						"devicewidth" : 0.0,
						"description" : "",
						"digest" : "",
						"tags" : "",
						"style" : "",
						"subpatcher_template" : "",
						"boxes" : [ 							{
								"box" : 								{
									"bubble" : 1,
									"bubbleside" : 3,
									"id" : "obj-10",
									"linecount" : 2,
									"maxclass" : "comment",
									"numinlets" : 1,
									"numoutlets" : 0,
									"patching_rect" : [ 136.75, 474.5, 125.0, 37.0 ],
									"style" : "",
									"text" : "Because we still owe *this* trial"
								}

							}
, 							{
								"box" : 								{
									"id" : "obj-1",
									"maxclass" : "newobj",
									"numinlets" : 2,
									"numoutlets" : 1,
									"outlettype" : [ "int" ],
									"patching_rect" : [ 263.333374, 482.0, 29.5, 22.0 ],
									"style" : "",
									"text" : "- 1"
								}

							}
, 							{
								"box" : 								{
									"id" : "obj-24",
									"maxclass" : "newobj",
									"numinlets" : 1,
									"numoutlets" : 0,
									"patching_rect" : [ 263.416656, 570.333313, 157.0, 22.0 ],
									"style" : "",
									"text" : "s num-good-trials-still-owed"
								}

							}
, 							{
								"box" : 								{
									"id" : "obj-22",
									"maxclass" : "number",
									"numinlets" : 1,
									"numoutlets" : 2,
									"outlettype" : [ "", "bang" ],
									"parameter_enable" : 0,
									"patching_rect" : [ 263.416656, 538.0, 50.0, 22.0 ],
									"style" : ""
								}

							}
, 							{
								"box" : 								{
									"id" : "obj-18",
									"maxclass" : "newobj",
									"numinlets" : 2,
									"numoutlets" : 1,
									"outlettype" : [ "int" ],
									"patching_rect" : [ 263.333374, 507.5, 45.5, 22.0 ],
									"style" : "",
									"text" : "!-"
								}

							}
, 							{
								"box" : 								{
									"id" : "obj-8",
									"linecount" : 5,
									"maxclass" : "comment",
									"numinlets" : 1,
									"numoutlets" : 0,
									"patching_rect" : [ 74.75, 178.5, 144.0, 74.0 ],
									"style" : "",
									"text" : "This counter doesn't count re-dos of practice trials; it's an index into this patcher's coll but not the actual trial number."
								}

							}
, 							{
								"box" : 								{
									"id" : "obj-4",
									"linecount" : 2,
									"maxclass" : "comment",
									"numinlets" : 1,
									"numoutlets" : 0,
									"patching_rect" : [ 586.333313, 296.0, 192.0, 33.0 ],
									"style" : "",
									"text" : "Insert this trial type at the end of the list of trials \"owed\""
								}

							}
, 							{
								"box" : 								{
									"id" : "obj-43",
									"linecount" : 3,
									"maxclass" : "comment",
									"numinlets" : 1,
									"numoutlets" : 0,
									"patching_rect" : [ 565.0, 469.5, 144.0, 47.0 ],
									"style" : "",
									"text" : "trial numbers are 1-origin, so the next index should be length+1"
								}

							}
, 							{
								"box" : 								{
									"id" : "obj-41",
									"maxclass" : "comment",
									"numinlets" : 1,
									"numoutlets" : 0,
									"patching_rect" : [ 332.75, 439.5, 33.0, 20.0 ],
									"style" : "",
									"text" : "Last"
								}

							}
, 							{
								"box" : 								{
									"id" : "obj-35",
									"maxclass" : "newobj",
									"numinlets" : 1,
									"numoutlets" : 3,
									"outlettype" : [ "dump", "clear", "bang" ],
									"patching_rect" : [ 483.666656, 128.5, 87.0, 22.0 ],
									"style" : "",
									"text" : "t dump clear b"
								}

							}
, 							{
								"box" : 								{
									"id" : "obj-224",
									"maxclass" : "newobj",
									"numinlets" : 1,
									"numoutlets" : 4,
									"outlettype" : [ "", "", "", "" ],
									"patching_rect" : [ 483.666656, 185.5, 113.0, 22.0 ],
									"saved_object_attributes" : 									{
										"embed" : 0
									}
,
									"style" : "",
									"text" : "coll trials-sequence"
								}

							}
, 							{
								"box" : 								{
									"id" : "obj-37",
									"linecount" : 5,
									"maxclass" : "comment",
									"numinlets" : 1,
									"numoutlets" : 0,
									"patching_rect" : [ 475.25, 672.166687, 187.0, 74.0 ],
									"style" : "",
									"text" : "Future feature?  Write out this coll (the log of how many trials were performed and what type each one was) at the end of the block..."
								}

							}
, 							{
								"box" : 								{
									"id" : "obj-7",
									"maxclass" : "newobj",
									"numinlets" : 2,
									"numoutlets" : 1,
									"outlettype" : [ "int" ],
									"patching_rect" : [ 515.0, 482.0, 29.5, 22.0 ],
									"style" : "",
									"text" : "+ 1"
								}

							}
, 							{
								"box" : 								{
									"bubble" : 1,
									"bubbleside" : 3,
									"id" : "obj-36",
									"linecount" : 2,
									"maxclass" : "comment",
									"numinlets" : 1,
									"numoutlets" : 0,
									"patching_rect" : [ 117.75, 439.5, 101.0, 37.0 ],
									"style" : "",
									"text" : "Current trial # [one-origin]"
								}

							}
, 							{
								"box" : 								{
									"id" : "obj-34",
									"maxclass" : "newobj",
									"numinlets" : 1,
									"numoutlets" : 2,
									"outlettype" : [ "int", "int" ],
									"patching_rect" : [ 218.75, 566.0, 29.5, 22.0 ],
									"style" : "",
									"text" : "t i i"
								}

							}
, 							{
								"box" : 								{
									"comment" : "Bang Finished Block for UI",
									"id" : "obj-32",
									"maxclass" : "outlet",
									"numinlets" : 1,
									"numoutlets" : 0,
									"patching_rect" : [ 322.75, 687.166687, 30.0, 30.0 ],
									"style" : ""
								}

							}
, 							{
								"box" : 								{
									"fontsize" : 20.0,
									"id" : "obj-31",
									"maxclass" : "number",
									"numinlets" : 1,
									"numoutlets" : 2,
									"outlettype" : [ "", "bang" ],
									"parameter_enable" : 0,
									"patching_rect" : [ 515.0, 297.0, 62.0, 31.0 ],
									"style" : ""
								}

							}
, 							{
								"box" : 								{
									"comment" : "Bad Trial Number",
									"id" : "obj-29",
									"maxclass" : "inlet",
									"numinlets" : 0,
									"numoutlets" : 1,
									"outlettype" : [ "" ],
									"patching_rect" : [ 626.333313, 233.0, 30.0, 30.0 ],
									"style" : ""
								}

							}
, 							{
								"box" : 								{
									"id" : "obj-30",
									"linecount" : 2,
									"maxclass" : "comment",
									"numinlets" : 1,
									"numoutlets" : 0,
									"patching_rect" : [ 626.333313, 199.0, 40.0, 33.0 ],
									"style" : "",
									"text" : "Owe again"
								}

							}
, 							{
								"box" : 								{
									"comment" : "Trial Type",
									"id" : "obj-28",
									"maxclass" : "outlet",
									"numinlets" : 1,
									"numoutlets" : 0,
									"patching_rect" : [ 439.25, 687.166687, 30.0, 30.0 ],
									"style" : ""
								}

							}
, 							{
								"box" : 								{
									"id" : "obj-26",
									"maxclass" : "button",
									"numinlets" : 1,
									"numoutlets" : 1,
									"outlettype" : [ "bang" ],
									"patching_rect" : [ 218.75, 167.5, 24.0, 24.0 ],
									"style" : ""
								}

							}
, 							{
								"box" : 								{
									"comment" : "Bang Counter",
									"id" : "obj-27",
									"maxclass" : "inlet",
									"numinlets" : 0,
									"numoutlets" : 1,
									"outlettype" : [ "bang" ],
									"patching_rect" : [ 218.75, 112.0, 30.0, 30.0 ],
									"style" : ""
								}

							}
, 							{
								"box" : 								{
									"id" : "obj-25",
									"maxclass" : "button",
									"numinlets" : 1,
									"numoutlets" : 1,
									"outlettype" : [ "bang" ],
									"patching_rect" : [ 322.75, 636.333313, 44.0, 44.0 ],
									"style" : ""
								}

							}
, 							{
								"box" : 								{
									"id" : "obj-23",
									"maxclass" : "number",
									"numinlets" : 1,
									"numoutlets" : 2,
									"outlettype" : [ "", "bang" ],
									"parameter_enable" : 0,
									"patching_rect" : [ 218.75, 447.0, 50.0, 22.0 ],
									"style" : ""
								}

							}
, 							{
								"box" : 								{
									"id" : "obj-21",
									"maxclass" : "newobj",
									"numinlets" : 2,
									"numoutlets" : 1,
									"outlettype" : [ "int" ],
									"patching_rect" : [ 322.75, 376.5, 29.5, 22.0 ],
									"style" : "",
									"text" : "- 1"
								}

							}
, 							{
								"box" : 								{
									"id" : "obj-20",
									"maxclass" : "number",
									"numinlets" : 1,
									"numoutlets" : 2,
									"outlettype" : [ "", "bang" ],
									"parameter_enable" : 0,
									"patching_rect" : [ 263.333374, 376.5, 50.0, 22.0 ],
									"style" : ""
								}

							}
, 							{
								"box" : 								{
									"id" : "obj-17",
									"maxclass" : "button",
									"numinlets" : 1,
									"numoutlets" : 1,
									"outlettype" : [ "bang" ],
									"patching_rect" : [ 483.666656, 96.5, 24.0, 24.0 ],
									"style" : ""
								}

							}
, 							{
								"box" : 								{
									"id" : "obj-14",
									"maxclass" : "newobj",
									"numinlets" : 1,
									"numoutlets" : 2,
									"outlettype" : [ "int", "bang" ],
									"patching_rect" : [ 218.75, 273.0, 124.333336, 22.0 ],
									"style" : "",
									"text" : "t i b"
								}

							}
, 							{
								"box" : 								{
									"id" : "obj-13",
									"maxclass" : "newobj",
									"numinlets" : 3,
									"numoutlets" : 2,
									"outlettype" : [ "int", "int" ],
									"patching_rect" : [ 218.75, 410.0, 123.0, 22.0 ],
									"style" : "",
									"text" : "split 0 99"
								}

							}
, 							{
								"box" : 								{
									"fontsize" : 20.0,
									"id" : "obj-12",
									"maxclass" : "number",
									"numinlets" : 1,
									"numoutlets" : 2,
									"outlettype" : [ "", "bang" ],
									"parameter_enable" : 0,
									"patching_rect" : [ 218.75, 233.0, 62.0, 31.0 ],
									"style" : ""
								}

							}
, 							{
								"box" : 								{
									"id" : "obj-9",
									"maxclass" : "message",
									"numinlets" : 2,
									"numoutlets" : 1,
									"outlettype" : [ "" ],
									"patching_rect" : [ 323.75, 306.0, 43.0, 22.0 ],
									"style" : "",
									"text" : "length"
								}

							}
, 							{
								"box" : 								{
									"id" : "obj-11",
									"maxclass" : "newobj",
									"numinlets" : 1,
									"numoutlets" : 2,
									"outlettype" : [ "", "" ],
									"patching_rect" : [ 323.75, 333.0, 35.0, 22.0 ],
									"style" : "",
									"text" : "grab"
								}

							}
, 							{
								"box" : 								{
									"id" : "obj-6",
									"maxclass" : "comment",
									"numinlets" : 1,
									"numoutlets" : 0,
									"patching_rect" : [ 218.75, 88.0, 35.0, 20.0 ],
									"style" : "",
									"text" : "Next"
								}

							}
, 							{
								"box" : 								{
									"id" : "obj-5",
									"maxclass" : "message",
									"numinlets" : 2,
									"numoutlets" : 1,
									"outlettype" : [ "" ],
									"patching_rect" : [ 244.75, 167.5, 29.5, 22.0 ],
									"style" : "",
									"text" : "1"
								}

							}
, 							{
								"box" : 								{
									"id" : "obj-3",
									"maxclass" : "newobj",
									"numinlets" : 5,
									"numoutlets" : 4,
									"outlettype" : [ "int", "", "", "int" ],
									"patching_rect" : [ 218.75, 202.0, 71.0, 22.0 ],
									"style" : "",
									"text" : "counter"
								}

							}
, 							{
								"box" : 								{
									"id" : "obj-2",
									"maxclass" : "comment",
									"numinlets" : 1,
									"numoutlets" : 0,
									"patching_rect" : [ 483.666656, 38.0, 27.0, 20.0 ],
									"style" : "",
									"text" : "Init"
								}

							}
, 							{
								"box" : 								{
									"id" : "obj-50",
									"maxclass" : "newobj",
									"numinlets" : 2,
									"numoutlets" : 1,
									"outlettype" : [ "" ],
									"patching_rect" : [ 515.0, 516.5, 48.0, 22.0 ],
									"style" : "",
									"text" : "pack i i"
								}

							}
, 							{
								"box" : 								{
									"id" : "obj-51",
									"maxclass" : "newobj",
									"numinlets" : 1,
									"numoutlets" : 2,
									"outlettype" : [ "bang", "int" ],
									"patching_rect" : [ 515.0, 379.5, 30.0, 22.0 ],
									"style" : "",
									"text" : "t b i"
								}

							}
, 							{
								"box" : 								{
									"id" : "obj-52",
									"maxclass" : "message",
									"numinlets" : 2,
									"numoutlets" : 1,
									"outlettype" : [ "" ],
									"patching_rect" : [ 515.0, 412.5, 43.0, 22.0 ],
									"style" : "",
									"text" : "length"
								}

							}
, 							{
								"box" : 								{
									"id" : "obj-53",
									"maxclass" : "newobj",
									"numinlets" : 1,
									"numoutlets" : 2,
									"outlettype" : [ "", "" ],
									"patching_rect" : [ 515.0, 439.5, 35.0, 22.0 ],
									"style" : "",
									"text" : "grab"
								}

							}
, 							{
								"box" : 								{
									"color" : [ 1.0, 0.0, 1.0, 1.0 ],
									"id" : "obj-54",
									"maxclass" : "newobj",
									"numinlets" : 1,
									"numoutlets" : 4,
									"outlettype" : [ "", "", "", "" ],
									"patching_rect" : [ 439.25, 641.666687, 50.5, 22.0 ],
									"saved_object_attributes" : 									{
										"embed" : 0
									}
,
									"style" : "",
									"text" : "coll"
								}

							}
, 							{
								"box" : 								{
									"comment" : "Initialize Counter and Coll",
									"id" : "obj-76",
									"maxclass" : "inlet",
									"numinlets" : 0,
									"numoutlets" : 1,
									"outlettype" : [ "bang" ],
									"patching_rect" : [ 483.666656, 60.0, 30.0, 30.0 ],
									"style" : ""
								}

							}
 ],
						"lines" : [ 							{
								"patchline" : 								{
									"destination" : [ "obj-18", 0 ],
									"disabled" : 0,
									"hidden" : 0,
									"source" : [ "obj-1", 0 ]
								}

							}
, 							{
								"patchline" : 								{
									"destination" : [ "obj-18", 1 ],
									"disabled" : 0,
									"hidden" : 0,
									"source" : [ "obj-11", 0 ]
								}

							}
, 							{
								"patchline" : 								{
									"destination" : [ "obj-20", 0 ],
									"disabled" : 0,
									"hidden" : 0,
									"source" : [ "obj-11", 0 ]
								}

							}
, 							{
								"patchline" : 								{
									"destination" : [ "obj-21", 0 ],
									"disabled" : 0,
									"hidden" : 0,
									"source" : [ "obj-11", 0 ]
								}

							}
, 							{
								"patchline" : 								{
									"destination" : [ "obj-54", 0 ],
									"disabled" : 0,
									"hidden" : 0,
									"midpoints" : [ 349.25, 364.666656, 448.75, 364.666656 ],
									"source" : [ "obj-11", 1 ]
								}

							}
, 							{
								"patchline" : 								{
									"destination" : [ "obj-14", 0 ],
									"disabled" : 0,
									"hidden" : 0,
									"source" : [ "obj-12", 0 ]
								}

							}
, 							{
								"patchline" : 								{
									"destination" : [ "obj-23", 0 ],
									"disabled" : 0,
									"hidden" : 0,
									"source" : [ "obj-13", 0 ]
								}

							}
, 							{
								"patchline" : 								{
									"destination" : [ "obj-25", 0 ],
									"disabled" : 0,
									"hidden" : 0,
									"source" : [ "obj-13", 1 ]
								}

							}
, 							{
								"patchline" : 								{
									"destination" : [ "obj-13", 0 ],
									"disabled" : 0,
									"hidden" : 0,
									"source" : [ "obj-14", 0 ]
								}

							}
, 							{
								"patchline" : 								{
									"destination" : [ "obj-9", 0 ],
									"disabled" : 0,
									"hidden" : 0,
									"source" : [ "obj-14", 1 ]
								}

							}
, 							{
								"patchline" : 								{
									"destination" : [ "obj-35", 0 ],
									"disabled" : 0,
									"hidden" : 0,
									"source" : [ "obj-17", 0 ]
								}

							}
, 							{
								"patchline" : 								{
									"destination" : [ "obj-22", 0 ],
									"disabled" : 0,
									"hidden" : 0,
									"source" : [ "obj-18", 0 ]
								}

							}
, 							{
								"patchline" : 								{
									"destination" : [ "obj-13", 2 ],
									"disabled" : 0,
									"hidden" : 0,
									"source" : [ "obj-21", 0 ]
								}

							}
, 							{
								"patchline" : 								{
									"destination" : [ "obj-24", 0 ],
									"disabled" : 0,
									"hidden" : 0,
									"source" : [ "obj-22", 0 ]
								}

							}
, 							{
								"patchline" : 								{
									"destination" : [ "obj-31", 0 ],
									"disabled" : 0,
									"hidden" : 0,
									"source" : [ "obj-224", 1 ]
								}

							}
, 							{
								"patchline" : 								{
									"destination" : [ "obj-1", 0 ],
									"disabled" : 0,
									"hidden" : 0,
									"source" : [ "obj-23", 0 ]
								}

							}
, 							{
								"patchline" : 								{
									"destination" : [ "obj-34", 0 ],
									"disabled" : 0,
									"hidden" : 0,
									"source" : [ "obj-23", 0 ]
								}

							}
, 							{
								"patchline" : 								{
									"destination" : [ "obj-32", 0 ],
									"disabled" : 0,
									"hidden" : 0,
									"source" : [ "obj-25", 0 ]
								}

							}
, 							{
								"patchline" : 								{
									"destination" : [ "obj-3", 0 ],
									"disabled" : 0,
									"hidden" : 0,
									"source" : [ "obj-26", 0 ]
								}

							}
, 							{
								"patchline" : 								{
									"destination" : [ "obj-26", 0 ],
									"disabled" : 0,
									"hidden" : 0,
									"midpoints" : [ 228.25, 154.25, 228.25, 154.25 ],
									"source" : [ "obj-27", 0 ]
								}

							}
, 							{
								"patchline" : 								{
									"destination" : [ "obj-31", 0 ],
									"disabled" : 0,
									"hidden" : 0,
									"source" : [ "obj-29", 0 ]
								}

							}
, 							{
								"patchline" : 								{
									"destination" : [ "obj-12", 0 ],
									"disabled" : 0,
									"hidden" : 0,
									"source" : [ "obj-3", 0 ]
								}

							}
, 							{
								"patchline" : 								{
									"destination" : [ "obj-51", 0 ],
									"disabled" : 0,
									"hidden" : 0,
									"source" : [ "obj-31", 0 ]
								}

							}
, 							{
								"patchline" : 								{
									"destination" : [ "obj-54", 0 ],
									"disabled" : 0,
									"hidden" : 0,
									"midpoints" : [ 228.25, 605.833374, 448.75, 605.833374 ],
									"source" : [ "obj-34", 0 ]
								}

							}
, 							{
								"patchline" : 								{
									"destination" : [ "obj-224", 0 ],
									"disabled" : 0,
									"hidden" : 0,
									"source" : [ "obj-35", 0 ]
								}

							}
, 							{
								"patchline" : 								{
									"destination" : [ "obj-5", 0 ],
									"disabled" : 0,
									"hidden" : 0,
									"midpoints" : [ 561.166626, 160.25, 254.25, 160.25 ],
									"source" : [ "obj-35", 2 ]
								}

							}
, 							{
								"patchline" : 								{
									"destination" : [ "obj-54", 0 ],
									"disabled" : 0,
									"hidden" : 0,
									"midpoints" : [ 527.166626, 173.0, 448.75, 173.0 ],
									"source" : [ "obj-35", 1 ]
								}

							}
, 							{
								"patchline" : 								{
									"destination" : [ "obj-3", 2 ],
									"disabled" : 0,
									"hidden" : 0,
									"source" : [ "obj-5", 0 ]
								}

							}
, 							{
								"patchline" : 								{
									"destination" : [ "obj-54", 0 ],
									"disabled" : 0,
									"hidden" : 0,
									"midpoints" : [ 524.5, 576.666687, 448.75, 576.666687 ],
									"source" : [ "obj-50", 0 ]
								}

							}
, 							{
								"patchline" : 								{
									"destination" : [ "obj-50", 1 ],
									"disabled" : 0,
									"hidden" : 0,
									"midpoints" : [ 535.5, 407.5, 570.0, 407.5, 570.0, 461.166656, 553.5, 461.166656 ],
									"source" : [ "obj-51", 1 ]
								}

							}
, 							{
								"patchline" : 								{
									"destination" : [ "obj-52", 0 ],
									"disabled" : 0,
									"hidden" : 0,
									"source" : [ "obj-51", 0 ]
								}

							}
, 							{
								"patchline" : 								{
									"destination" : [ "obj-53", 0 ],
									"disabled" : 0,
									"hidden" : 0,
									"source" : [ "obj-52", 0 ]
								}

							}
, 							{
								"patchline" : 								{
									"destination" : [ "obj-54", 0 ],
									"disabled" : 0,
									"hidden" : 0,
									"midpoints" : [ 540.5, 473.5, 448.75, 473.5 ],
									"source" : [ "obj-53", 1 ]
								}

							}
, 							{
								"patchline" : 								{
									"destination" : [ "obj-7", 0 ],
									"disabled" : 0,
									"hidden" : 0,
									"midpoints" : [ 524.5, 467.416656, 524.5, 467.416656 ],
									"source" : [ "obj-53", 0 ]
								}

							}
, 							{
								"patchline" : 								{
									"color" : [ 1.0, 0.0, 1.0, 1.0 ],
									"destination" : [ "obj-28", 0 ],
									"disabled" : 0,
									"hidden" : 0,
									"source" : [ "obj-54", 0 ]
								}

							}
, 							{
								"patchline" : 								{
									"destination" : [ "obj-50", 0 ],
									"disabled" : 0,
									"hidden" : 0,
									"source" : [ "obj-7", 0 ]
								}

							}
, 							{
								"patchline" : 								{
									"destination" : [ "obj-17", 0 ],
									"disabled" : 0,
									"hidden" : 0,
									"source" : [ "obj-76", 0 ]
								}

							}
, 							{
								"patchline" : 								{
									"destination" : [ "obj-11", 0 ],
									"disabled" : 0,
									"hidden" : 0,
									"source" : [ "obj-9", 0 ]
								}

							}
 ]
					}
,
					"patching_rect" : [ 90.0, 184.166687, 129.0, 22.0 ],
					"saved_object_attributes" : 					{
						"description" : "",
						"digest" : "",
						"globalpatchername" : "",
						"style" : "",
						"tags" : ""
					}
,
					"style" : "",
					"text" : "p trials-owed"
				}

			}
, 			{
				"box" : 				{
					"id" : "obj-37",
					"maxclass" : "button",
					"numinlets" : 1,
					"numoutlets" : 1,
					"outlettype" : [ "bang" ],
					"patching_rect" : [ 145.0, 154.666687, 24.0, 24.0 ],
					"style" : ""
				}

			}
, 			{
				"box" : 				{
					"id" : "obj-8",
					"maxclass" : "comment",
					"numinlets" : 1,
					"numoutlets" : 0,
					"patching_rect" : [ 61.0, 107.5, 33.0, 20.0 ],
					"style" : "",
					"text" : "Go!"
				}

			}
, 			{
				"box" : 				{
					"id" : "obj-4",
					"maxclass" : "button",
					"numinlets" : 1,
					"numoutlets" : 1,
					"outlettype" : [ "bang" ],
					"patching_rect" : [ 90.0, 96.5, 40.0, 40.0 ],
					"style" : ""
				}

			}
, 			{
				"box" : 				{
					"id" : "obj-57",
					"linecount" : 2,
					"maxclass" : "comment",
					"numinlets" : 1,
					"numoutlets" : 0,
					"patching_rect" : [ 37.5, 256.333374, 57.0, 33.0 ],
					"style" : "",
					"text" : "Finished block"
				}

			}
, 			{
				"box" : 				{
					"id" : "obj-58",
					"maxclass" : "button",
					"numinlets" : 1,
					"numoutlets" : 1,
					"outlettype" : [ "bang" ],
					"patching_rect" : [ 90.0, 246.333374, 53.0, 53.0 ],
					"style" : ""
				}

			}
, 			{
				"box" : 				{
					"id" : "obj-49",
					"linecount" : 2,
					"maxclass" : "comment",
					"numinlets" : 1,
					"numoutlets" : 0,
					"patching_rect" : [ 482.083313, 478.833374, 85.5, 33.0 ],
					"style" : "",
					"text" : "Correct performance?"
				}

			}
, 			{
				"box" : 				{
					"id" : "obj-11",
					"maxclass" : "toggle",
					"numinlets" : 1,
					"numoutlets" : 1,
					"outlettype" : [ "int" ],
					"parameter_enable" : 0,
					"patching_rect" : [ 456.083313, 483.333374, 24.0, 24.0 ],
					"style" : ""
				}

			}
 ],
		"lines" : [ 			{
				"patchline" : 				{
					"destination" : [ "obj-105", 0 ],
					"disabled" : 0,
					"hidden" : 0,
					"midpoints" : [ 175.333344, 368.666687, 332.0, 368.666687, 332.0, 142.333374, 209.5, 142.333374 ],
					"source" : [ "obj-102", 0 ]
				}

			}
, 			{
				"patchline" : 				{
					"destination" : [ "obj-102", 0 ],
					"disabled" : 0,
					"hidden" : 0,
					"source" : [ "obj-103", 0 ]
				}

			}
, 			{
				"patchline" : 				{
					"destination" : [ "obj-77", 2 ],
					"disabled" : 0,
					"hidden" : 0,
					"source" : [ "obj-105", 0 ]
				}

			}
, 			{
				"patchline" : 				{
					"destination" : [ "obj-39", 0 ],
					"disabled" : 0,
					"hidden" : 0,
					"source" : [ "obj-11", 0 ]
				}

			}
, 			{
				"patchline" : 				{
					"destination" : [ "obj-7", 0 ],
					"disabled" : 0,
					"hidden" : 0,
					"source" : [ "obj-15", 0 ]
				}

			}
, 			{
				"patchline" : 				{
					"destination" : [ "obj-25", 0 ],
					"disabled" : 0,
					"hidden" : 0,
					"source" : [ "obj-17", 0 ]
				}

			}
, 			{
				"patchline" : 				{
					"destination" : [ "obj-17", 1 ],
					"disabled" : 0,
					"hidden" : 0,
					"source" : [ "obj-19", 2 ]
				}

			}
, 			{
				"patchline" : 				{
					"destination" : [ "obj-17", 0 ],
					"disabled" : 0,
					"hidden" : 0,
					"midpoints" : [ 437.0, 316.0, 425.0, 316.0, 425.0, 364.0, 465.583313, 364.0 ],
					"source" : [ "obj-19", 0 ]
				}

			}
, 			{
				"patchline" : 				{
					"destination" : [ "obj-3", 0 ],
					"disabled" : 0,
					"hidden" : 0,
					"source" : [ "obj-19", 1 ]
				}

			}
, 			{
				"patchline" : 				{
					"destination" : [ "obj-102", 1 ],
					"disabled" : 0,
					"hidden" : 0,
					"source" : [ "obj-2", 1 ]
				}

			}
, 			{
				"patchline" : 				{
					"destination" : [ "obj-15", 0 ],
					"disabled" : 0,
					"hidden" : 0,
					"source" : [ "obj-2", 2 ]
				}

			}
, 			{
				"patchline" : 				{
					"destination" : [ "obj-224", 0 ],
					"disabled" : 0,
					"hidden" : 0,
					"source" : [ "obj-2", 0 ]
				}

			}
, 			{
				"patchline" : 				{
					"destination" : [ "obj-24", 0 ],
					"disabled" : 0,
					"hidden" : 0,
					"source" : [ "obj-20", 0 ]
				}

			}
, 			{
				"patchline" : 				{
					"destination" : [ "obj-17", 0 ],
					"disabled" : 0,
					"hidden" : 0,
					"midpoints" : [ 440.583313, 634.0, 350.0, 634.0, 350.0, 369.0, 465.583313, 369.0 ],
					"source" : [ "obj-21", 0 ]
				}

			}
, 			{
				"patchline" : 				{
					"destination" : [ "obj-110", 0 ],
					"disabled" : 0,
					"hidden" : 0,
					"source" : [ "obj-22", 0 ]
				}

			}
, 			{
				"patchline" : 				{
					"destination" : [ "obj-19", 0 ],
					"disabled" : 0,
					"hidden" : 0,
					"source" : [ "obj-224", 0 ]
				}

			}
, 			{
				"patchline" : 				{
					"destination" : [ "obj-24", 2 ],
					"disabled" : 0,
					"hidden" : 0,
					"source" : [ "obj-23", 0 ]
				}

			}
, 			{
				"patchline" : 				{
					"destination" : [ "obj-22", 0 ],
					"disabled" : 0,
					"hidden" : 0,
					"source" : [ "obj-24", 0 ]
				}

			}
, 			{
				"patchline" : 				{
					"destination" : [ "obj-20", 0 ],
					"disabled" : 0,
					"hidden" : 0,
					"source" : [ "obj-25", 1 ]
				}

			}
, 			{
				"patchline" : 				{
					"destination" : [ "obj-5", 0 ],
					"disabled" : 0,
					"hidden" : 0,
					"source" : [ "obj-25", 0 ]
				}

			}
, 			{
				"patchline" : 				{
					"destination" : [ "obj-6", 0 ],
					"disabled" : 0,
					"hidden" : 0,
					"source" : [ "obj-3", 0 ]
				}

			}
, 			{
				"patchline" : 				{
					"destination" : [ "obj-77", 1 ],
					"disabled" : 0,
					"hidden" : 0,
					"source" : [ "obj-37", 0 ]
				}

			}
, 			{
				"patchline" : 				{
					"destination" : [ "obj-9", 0 ],
					"disabled" : 0,
					"hidden" : 0,
					"source" : [ "obj-39", 0 ]
				}

			}
, 			{
				"patchline" : 				{
					"destination" : [ "obj-82", 0 ],
					"disabled" : 0,
					"hidden" : 0,
					"source" : [ "obj-4", 0 ]
				}

			}
, 			{
				"patchline" : 				{
					"destination" : [ "obj-82", 0 ],
					"disabled" : 0,
					"hidden" : 0,
					"midpoints" : [ 502.5, 669.333374, 32.999985, 669.333374, 32.999985, 144.799988, 99.5, 144.799988 ],
					"source" : [ "obj-43", 0 ]
				}

			}
, 			{
				"patchline" : 				{
					"destination" : [ "obj-103", 0 ],
					"disabled" : 0,
					"hidden" : 0,
					"midpoints" : [ 476.583313, 646.0, 157.0, 646.0, 157.0, 265.0, 175.333344, 265.0 ],
					"source" : [ "obj-47", 1 ]
				}

			}
, 			{
				"patchline" : 				{
					"destination" : [ "obj-43", 0 ],
					"disabled" : 0,
					"hidden" : 0,
					"source" : [ "obj-47", 0 ]
				}

			}
, 			{
				"patchline" : 				{
					"destination" : [ "obj-11", 0 ],
					"disabled" : 0,
					"hidden" : 0,
					"source" : [ "obj-5", 0 ]
				}

			}
, 			{
				"patchline" : 				{
					"destination" : [ "obj-54", 0 ],
					"disabled" : 0,
					"hidden" : 0,
					"source" : [ "obj-53", 0 ]
				}

			}
, 			{
				"patchline" : 				{
					"destination" : [ "obj-23", 0 ],
					"disabled" : 0,
					"hidden" : 0,
					"midpoints" : [ 162.75, 73.0, 680.25, 73.0 ],
					"source" : [ "obj-54", 2 ]
				}

			}
, 			{
				"patchline" : 				{
					"destination" : [ "obj-37", 0 ],
					"disabled" : 0,
					"hidden" : 0,
					"source" : [ "obj-54", 1 ]
				}

			}
, 			{
				"patchline" : 				{
					"destination" : [ "obj-63", 1 ],
					"disabled" : 0,
					"hidden" : 0,
					"source" : [ "obj-54", 0 ]
				}

			}
, 			{
				"patchline" : 				{
					"destination" : [ "obj-55", 0 ],
					"disabled" : 0,
					"hidden" : 0,
					"source" : [ "obj-58", 0 ]
				}

			}
, 			{
				"patchline" : 				{
					"destination" : [ "obj-21", 0 ],
					"disabled" : 0,
					"hidden" : 0,
					"source" : [ "obj-6", 0 ]
				}

			}
, 			{
				"patchline" : 				{
					"destination" : [ "obj-47", 0 ],
					"disabled" : 0,
					"hidden" : 0,
					"source" : [ "obj-6", 1 ]
				}

			}
, 			{
				"patchline" : 				{
					"destination" : [ "obj-4", 0 ],
					"disabled" : 0,
					"hidden" : 0,
					"source" : [ "obj-63", 0 ]
				}

			}
, 			{
				"patchline" : 				{
					"destination" : [ "obj-63", 0 ],
					"disabled" : 0,
					"hidden" : 0,
					"source" : [ "obj-64", 0 ]
				}

			}
, 			{
				"patchline" : 				{
					"destination" : [ "obj-58", 0 ],
					"disabled" : 0,
					"hidden" : 0,
					"source" : [ "obj-77", 0 ]
				}

			}
, 			{
				"patchline" : 				{
					"color" : [ 1.0, 0.0, 1.0, 1.0 ],
					"destination" : [ "obj-83", 0 ],
					"disabled" : 0,
					"hidden" : 0,
					"source" : [ "obj-77", 1 ]
				}

			}
, 			{
				"patchline" : 				{
					"destination" : [ "obj-77", 0 ],
					"disabled" : 0,
					"hidden" : 0,
					"source" : [ "obj-82", 0 ]
				}

			}
, 			{
				"patchline" : 				{
					"destination" : [ "obj-2", 0 ],
					"disabled" : 0,
					"hidden" : 0,
					"source" : [ "obj-83", 0 ]
				}

			}
, 			{
				"patchline" : 				{
					"destination" : [ "obj-43", 0 ],
					"disabled" : 0,
					"hidden" : 0,
					"source" : [ "obj-9", 1 ]
				}

			}
, 			{
				"patchline" : 				{
					"destination" : [ "obj-6", 1 ],
					"disabled" : 0,
					"hidden" : 0,
					"source" : [ "obj-9", 0 ]
				}

			}
 ],
		"dependency_cache" : [ 			{
				"name" : "piece-follow.maxpat",
				"bootpath" : "~/repos/dualpianoEEG/stimuli/patches-reading-blockfiles",
				"type" : "JSON",
				"implicit" : 1
			}
, 			{
				"name" : "piece1.coll.txt",
				"bootpath" : "~/repos/dualpianoEEG/stimuli/patches-reading-blockfiles",
				"type" : "TEXT",
				"implicit" : 1
			}
, 			{
				"name" : "midi2scaledegree.maxpat",
				"bootpath" : "~/repos/dualpianoEEG/stimuli/patches-reading-blockfiles",
				"type" : "JSON",
				"implicit" : 1
			}
, 			{
				"name" : "majorscale.coll.txt",
				"bootpath" : "~/repos/dualpianoEEG/stimuli/patches-reading-blockfiles",
				"type" : "TEXT",
				"implicit" : 1
			}
, 			{
				"name" : "check-for-deviant.maxpat",
				"bootpath" : "~/repos/dualpianoEEG/stimuli/patches-reading-blockfiles",
				"type" : "JSON",
				"implicit" : 1
			}
, 			{
				"name" : "==2.maxpat",
				"bootpath" : "~/repos/dualpianoEEG/stimuli/patches-reading-blockfiles",
				"type" : "JSON",
				"implicit" : 1
			}
, 			{
				"name" : "scaledegree2midi.maxpat",
				"bootpath" : "~/repos/dualpianoEEG/stimuli/patches-reading-blockfiles",
				"type" : "JSON",
				"implicit" : 1
			}
, 			{
				"name" : "piano-note.maxpat",
				"bootpath" : "~/repos/dualpianoEEG/stimuli/patches-reading-blockfiles",
				"type" : "JSON",
				"implicit" : 1
			}
, 			{
				"name" : "establish-tempo.maxpat",
				"bootpath" : "~/repos/dualpianoEEG/stimuli/patches-reading-blockfiles",
				"type" : "JSON",
				"implicit" : 1
			}
, 			{
				"name" : "metronome-tock.maxpat",
				"bootpath" : "~/repos/dualpianoEEG/stimuli/patches-reading-blockfiles",
				"type" : "JSON",
				"implicit" : 1
			}
, 			{
				"name" : "decode-trial-conditions.maxpat",
				"bootpath" : "~/repos/dualpianoEEG/stimuli/patches-reading-blockfiles",
				"type" : "JSON",
				"implicit" : 1
			}
, 			{
				"name" : "pause-between-trials.maxpat",
				"bootpath" : "~/repos/dualpianoEEG/stimuli/patches-reading-blockfiles",
				"type" : "JSON",
				"implicit" : 1
			}
, 			{
				"name" : "shell.mxo",
				"type" : "iLaX"
			}
 ],
		"autosave" : 0
	}

}
